<?xml version="1.0" encoding="UTF-8"?>
<svg id="Layer_1" data-name="Layer 1" xmlns="http://www.w3.org/2000/svg" viewBox="0 0 375.02 375.04">
  <defs>
    <style>
      .cls-1 {
        fill: #fff;
      }

      .cls-2 {
        fill: #bb7e26;
      }
    </style>
  </defs>
  <path class="cls-2" d="M96.55,351.44C37.03,318.33.13,255.55,0,187.9-.13,119.79,36.89,56.88,96.3,23.72,175.37-20.41,274.14-1.33,331.5,67.31c57.77,69.13,58.06,170.13.66,239.59-57.06,69.05-156.03,88.78-235.61,44.53ZM236.59,302.12c41.45-2.45,64.57-25.71,66.8-66.7v-95.82c-1.22-26.54-12.64-50.43-38.1-60.54-9.22-3.66-18.8-6.02-29.05-6.03l-98.03-.1c-40.91,2.51-64.3,25.54-66.48,66.67v95.82c2.19,41.42,25.96,64.48,67.16,66.7h97.69Z"/>
  <path class="cls-1" d="M236.59,302.12h-97.69c-41.2-2.22-64.97-25.28-67.16-66.7v-95.82c2.18-41.13,25.57-64.16,66.48-66.67l98.03.1c10.25.01,19.83,2.37,29.05,6.03,25.46,10.11,36.88,34,38.1,60.54v95.82c-2.23,40.99-25.35,64.25-66.8,66.7ZM235.15,280.39c7.36,0,13.62-1.47,19.87-3.61,17.46-5.98,26.94-24.56,26.94-42.08v-94.36c0-17.29-9.29-35.78-26.42-41.89-6.67-2.38-13.42-3.81-20.79-3.81h-94.38c-7.38,0-14.1,1.45-20.8,3.82-17.76,6.28-26.53,25.33-26.52,43.4l.06,94.34c1.12,17.06,9.43,34.15,25.95,40.19,6.83,2.5,13.74,4.03,21.31,4.02l94.78-.02Z"/>
  <path class="cls-2" d="M235.15,280.39l-94.78.02c-7.57,0-14.48-1.53-21.31-4.02-16.52-6.04-24.83-23.13-25.95-40.19l-.06-94.34c-.01-18.08,8.76-37.12,26.52-43.4,6.7-2.37,13.42-3.82,20.8-3.82h94.38c7.37,0,14.12,1.43,20.79,3.81,17.13,6.11,26.42,24.6,26.42,41.89v94.36c0,17.52-9.48,36.1-26.94,42.08-6.26,2.14-12.52,3.61-19.87,3.61ZM245.33,115.26c-6.94,2.08-9.89,9.21-8.18,14.96,2.03,6.82,8.84,10.17,15.14,8.33s10.05-8.56,8.29-14.87-8.31-10.49-15.26-8.41ZM178.54,127.22c-34.06,5.09-56.48,36.89-51.22,69.91,5.26,33.01,36.24,55.66,69.27,50.74,33.25-4.95,56.33-36.09,51.31-69.38-4.95-32.82-35.48-56.34-69.36-51.27Z"/>
  <path class="cls-1" d="M178.54,127.22c33.88-5.06,64.41,18.45,69.36,51.27,5.02,33.29-18.07,64.43-51.31,69.38-33.03,4.92-64.01-17.73-69.27-50.74-5.26-33.02,17.15-64.82,51.22-69.91ZM180.04,148.95c-22.1,4.31-35.37,25.59-30.96,46.68s24.98,34.6,46.02,30.51,35.26-24.83,31.07-46.16c-4.11-20.91-24.22-35.31-46.13-31.03Z"/>
  <path class="cls-1" d="M245.33,115.26c6.95-2.08,13.49,2.05,15.26,8.41s-1.86,12.99-8.29,14.87-13.11-1.51-15.14-8.33c-1.71-5.75,1.23-12.88,8.18-14.96Z"/>
  <path class="cls-2" d="M180.04,148.95c21.91-4.27,42.02,10.13,46.13,31.03,4.19,21.33-9.8,42.02-31.07,46.16s-41.63-9.49-46.02-30.51,8.87-42.37,30.96-46.68Z"/>
</svg>