<?xml version="1.0" encoding="UTF-8"?>
<svg id="Layer_1" data-name="Layer 1" xmlns="http://www.w3.org/2000/svg" viewBox="0 0 384 384">
  <defs>
    <style>
      .cls-1 {
        fill: #fff;
      }

      .cls-2 {
        fill: #bb7e26;
      }
    </style>
  </defs>
  <path class="cls-2" d="M204,0c.75.44,2.19.53,3.48.63,93.47,7.37,168.46,82.45,175.88,175.9.1,1.28.2,2.72.64,3.47v24c-.44.75-.54,2.19-.64,3.47-7.44,93.44-82.42,168.52-175.89,175.89-1.28.1-2.72.2-3.47.64h-23.25c-.72-.5-2.18-.51-3.84-.64-32.2-2.5-62.85-12.85-90.3-31.06l-73.91,23.49,23.85-71.3C15.8,275.9,3.31,242.42.66,207.09c.07-1.66-.07-3.17-.66-3.84v-23.25C7.58,82.4,82.57,7.61,180,0h24ZM258.9,220.01c-5.9-2.84-11.24-.63-14.63,3.98l-13.06,17.74c-3.09,4.19-8.28,6.7-13.69,4.77-19.86-7.1-37.36-18.71-52.34-33.65-10.3-10.27-18.55-21.64-25.95-34.06-1.91-3.21-1.01-7.03,1.3-9.69l13.29-15.24c2.16-2.48,4.67-7.55,3.27-10.94l-19.94-48.13c-2.06-4.98-6.13-6.81-11.24-6.84-7.47-.03-15.63-.61-22.1,4.02-9.6,6.87-16.42,17.11-20.1,28.32-9.61,29.2,3.36,55.92,19.71,79.39,14.43,20.73,30.55,39.49,49.92,55.8,16.75,14.1,34.92,24.76,55.43,32.3,25.91,9.53,48.58,18.38,74.2,4.04,7.44-4.16,14.73-9.21,18.91-16.9,3.53-6.48,10.16-29.33,2.34-33.1l-45.3-21.81Z"/>
  <path class="cls-1" d="M258.9,220.01l45.3,21.81c7.82,3.77,1.19,26.62-2.34,33.1-4.19,7.69-11.48,12.74-18.91,16.9-25.62,14.33-48.29,5.49-74.2-4.04-20.51-7.54-38.68-18.19-55.43-32.3-19.37-16.31-35.49-35.07-49.92-55.8-16.35-23.48-29.32-50.2-19.71-79.39,3.69-11.21,10.5-21.44,20.1-28.32,6.47-4.63,14.63-4.05,22.1-4.02,5.11.02,9.18,1.86,11.24,6.84l19.94,48.13c1.41,3.39-1.1,8.46-3.27,10.94l-13.29,15.24c-2.31,2.65-3.21,6.48-1.3,9.69,7.4,12.43,15.65,23.79,25.95,34.06,14.98,14.94,32.48,26.55,52.34,33.65,5.41,1.94,10.6-.58,13.69-4.77l13.06-17.74c3.4-4.61,8.73-6.82,14.63-3.98Z"/>
</svg>